<?xml version="1.0" encoding="UTF-8"?><svg id="_レイヤー_2" xmlns="http://www.w3.org/2000/svg" xmlns:xlink="http://www.w3.org/1999/xlink" viewBox="0 0 557.74 127"><defs><style>.cls-1{fill:#232326;}.cls-2{fill:url(#_コドマモロゴグラデ);}</style><linearGradient id="_コドマモロゴグラデ" x1="25.37" y1="-1.5" x2="112.94" y2="86.07" gradientUnits="userSpaceOnUse"><stop offset="0" stop-color="#48d2a9"/><stop offset=".31" stop-color="#2dc6a4"/><stop offset=".76" stop-color="#0cb89f"/><stop offset="1" stop-color="#00b39e"/></linearGradient></defs><g id="_レイヤー_1-2"><g><g><path class="cls-1" d="M226.61,91.94c-10.22,.61-26.13,.71-36.07,.71-7.23,0-7.23-10.87-.1-10.57,10.32,.41,27.87,.41,35.01-.1,2.89-.2,5.81-.83,6-4.59,.29-6.1,.09-19.73-.1-25.01-.1-3.35-2.62-3.01-6.28-3.11-8.49-.31-24.29-.49-34.33-.49-7,0-7-9,0-9,10.62,0,28.06-.26,37.71-.06,9.55,.2,12.92,6.2,12.92,13,0,6.2,.1,16.97-.1,26.01-.19,9.75-7.33,12.8-14.66,13.21Z"/><path class="cls-1" d="M309.98,96.67c.19,7.78-10.8,8.07-10.42,.38,.68-15.56,0-52.98,.58-67.05,.27-6.53,10.22-6.44,10.03,.1-.1,4.71-.17,10.72-.27,20.14-.16,2.1,.58,2.2,1.62,2.44,5.4,.87,17.46,4.98,22.67,9.4,5.02,4.23-.2,11.27-5.5,7.51-3.69-2.62-11.42-5.91-16.73-7.3-1.05-.28-2.08,.48-2.09,1.51-.08,12.63-.07,25.49,.11,32.88Zm13.99-56.39c-5.11-1.83-1.54-7.97,3.18-6.53,2.7,.87,7.81,3.17,10.13,5.38,4.05,3.94-1.35,10.18-4.82,6.53-1.35-1.44-6.46-4.61-8.49-5.38Zm8.58-8.93c-5.21-1.63-1.83-7.88,2.89-6.63,2.7,.77,7.91,2.88,10.32,5,4.24,3.75-1.06,10.28-4.63,6.72-1.45-1.44-6.56-4.42-8.58-5.09Z"/><path class="cls-1" d="M430.51,82.56c1.74,3.45,.92,6.6-1.3,8.13-2.22,1.52-5.21,1.42-7.04-1.73-3.47-5.79-9.09-13-21.95-19.58-5.77-2.95-1.49-11.91,5.27-8.26,3.12,1.65,6.67,3.81,10.16,6.24,1.1,.77,2.55,.8,3.65,.03,5.66-3.94,14.04-10.82,18.02-15.01,1.25-1.32,2.03-3.45-.87-3.45-12.06-.1-35.59,.31-50.54,.91-7.23,.3-7.91-10.06-.1-10.26,15.14-.31,38.87-.81,54.88-.51,8.68,.1,14.95,7.82,9.07,14.83-4.89,5.92-12.81,12.86-20.32,18.43-2.11,1.56-3.45,3.88-1.82,5.93,.96,1.22,2.27,3.08,2.9,4.3Z"/><path class="cls-1" d="M493.73,68.12c-3.28,.1-4.92-2.34-4.92-4.67s1.64-4.67,4.63-4.67h21.3c.81,0,1.48-.67,1.49-1.48,.07-3.9,.14-7.48,.16-10.76,0-.82-.68-1.48-1.5-1.48-4.98-.02-9.42-.11-12.58-.2-6.94-.2-6.85-9.75,.58-9.35,10.13,.51,30.08,.93,40.59,.62,6.75-.2,6.38,8.32,.5,8.53-4.39,.19-10.44,.2-16.77,.29-.81,.01-1.46,.65-1.46,1.46-.02,3.3-.09,6.99-.23,10.84-.03,.84,.64,1.54,1.48,1.54,9.71,0,19.28-.11,26.34-.2,5.88-.1,6.08,9.24-.67,9.24-7.79,0-16.89,.09-26.05,.1-.8,0-1.46,.64-1.48,1.44-.08,2.77-.15,5.5-.15,8.01,0,4.27,1.83,7.11,6.94,7.62,4.44,.51,11.24,1.04,17.4-.41,8.2-1.93,10.85,8.34,.73,9.76-7.91,1.12-13.79,1.02-21.99-.1-7.62-1.02-12.05-6.91-12.15-14.43,0-3.54,0-7,.06-10.38,.02-.83-.65-1.5-1.48-1.5-7.64,.01-14.88,.11-20.76,.2Z"/></g><path class="cls-2" d="M141.7,39.08C140.83,18.67,124.91,1.94,104.68,.16c-1.22-.11-2.44-.16-3.66-.16-21.43,0-39.04,16.65-40.59,37.7h-.12v3.02c0,10.81-8.79,19.6-19.6,19.6s-19.6-8.79-19.6-19.6,8.79-19.6,19.6-19.6c5.82,0,10.56-4.74,10.56-10.56S46.53,0,40.71,0C18.26,0,0,18.26,0,40.71s18.26,40.71,40.71,40.71,40.71-18.26,40.71-40.71h0c0-10.81,8.79-19.6,19.6-19.6h.34c9.27,.16,17.26,7.17,18.99,16.68,1.76,9.69-5.53,16.74-13.98,24.91-2.48,2.4-5.3,5.13-7.82,7.96l-31.48,31.21c-1.58-.9-3.37-1.38-5.16-1.38-1.28,0-2.52,.24-3.7,.72-3.47,1.4-5.88,4.24-6.6,7.79-.71,3.49,.36,7.08,2.87,9.58l5.33,5.33c1.94,1.94,4.51,3.02,7.32,3.08h.06s.22,0,.22,0c1.88,0,3.72-.52,5.32-1.46l.23,.23,50.84-50.58c9.69-9.55,18.56-20.53,17.89-36.12Z"/></g></g></svg>